<svg version="1.1" id="Layer_1" xmlns="http://www.w3.org/2000/svg" xmlns:xlink="http://www.w3.org/1999/xlink" x="0px" y="0px"
	 width="100%" viewBox="0 0 300 300" enable-background="new 0 0 300 300" xml:space="preserve">
<path fill="#000000" opacity="1.000000" stroke="none" 
	d="
M205.000000,301.000000 
	C138.000015,301.000000 71.499954,300.966370 5.000225,301.096588 
	C1.575619,301.103302 0.900213,300.424103 0.904390,296.999908 
	C1.023108,199.666748 1.023102,102.333374 0.904407,5.000206 
	C0.900232,1.576278 1.575718,0.900206 5.000026,0.904383 
	C102.333191,1.023108 199.666565,1.023097 296.999725,0.904416 
	C300.423523,0.900241 301.099823,1.575542 301.095642,4.999972 
	C300.976929,102.333145 300.976898,199.666534 301.095581,296.999695 
	C301.099731,300.423431 300.427338,301.119019 296.999634,301.099762 
	C266.500519,300.928345 236.000061,301.000000 205.000000,301.000000 
z"/>
<path fill="#292929" opacity="1.000000" stroke="none" 
	d="
M139.660110,76.777657 
	C139.671661,82.697815 136.398117,86.382195 131.059082,86.908539 
	C129.999481,87.013000 128.650269,87.586891 128.102341,85.991051 
	C126.715172,81.950867 124.031776,77.760826 124.434921,73.898804 
	C124.730026,71.071724 129.182114,68.909332 133.538818,70.644768 
	C132.206543,73.297691 125.994850,70.920746 127.676506,75.622192 
	C128.558090,78.086823 127.663345,82.671204 131.588104,82.756195 
	C134.132935,82.811310 137.105988,80.994194 138.035980,77.365784 
	C138.420685,76.651146 138.860596,76.506332 139.660110,76.777657 
z"/>
<path fill="#303030" opacity="1.000000" stroke="none" 
	d="
M174.117126,214.274811 
	C175.016571,211.208450 175.015610,211.107117 177.893646,211.079880 
	C179.650665,211.063232 181.471298,210.592636 183.538010,211.583923 
	C184.905991,212.406067 185.641479,213.143250 184.142456,214.372849 
	C181.371490,214.462906 182.821136,215.743881 182.931747,216.709381 
	C183.565781,222.244324 181.197479,223.943649 175.896118,222.210983 
	C173.914932,221.563461 173.240189,220.299332 173.085892,218.674103 
	C172.890091,216.611984 174.757675,217.264984 175.886032,216.849106 
	C177.543732,216.238129 179.089005,215.322128 181.472275,214.146240 
	C179.188400,213.897110 177.764267,213.741760 176.144348,213.797607 
	C175.516220,214.360886 175.022156,214.514816 174.117126,214.274811 
z"/>
<path fill="#222222" opacity="1.000000" stroke="none" 
	d="
M107.282211,89.197289 
	C106.765709,88.545372 106.241943,87.951035 106.375710,87.672775 
	C108.082855,84.121452 114.633400,81.926025 118.165070,83.648308 
	C122.362610,85.695328 123.222900,89.494637 119.508507,92.489784 
	C117.420227,94.173706 115.147774,98.211540 111.077820,94.597977 
	C110.709839,93.906944 110.578865,93.449600 110.523682,92.629440 
	C111.494583,90.780273 113.090828,91.012772 114.504776,90.771492 
	C115.643822,90.577141 116.904655,90.476212 117.014313,88.957443 
	C117.090942,87.896065 116.566879,87.026405 115.544418,86.652504 
	C114.186874,86.156059 113.419830,87.107445 112.695686,88.017456 
	C112.087959,88.781174 111.661346,89.694275 110.484390,90.381638 
	C109.069611,90.657379 108.391243,89.874985 107.282211,89.197289 
z"/>
<path fill="#222222" opacity="1.000000" stroke="none" 
	d="
M231.505875,112.735374 
	C231.837479,113.382301 231.853043,114.164406 231.584518,114.278603 
	C228.521835,115.581192 225.809692,117.009918 226.518799,121.170753 
	C226.579758,121.528534 225.028320,122.540184 224.180466,122.599571 
	C222.018097,122.751015 221.343750,120.728813 221.087280,119.284706 
	C220.520309,116.092407 219.148239,114.441933 215.353088,114.998962 
	C214.051346,112.093079 216.180923,112.543938 217.724152,112.534721 
	C222.168427,112.508171 226.613556,112.460876 231.505875,112.735374 
z"/>
<path fill="#191919" opacity="1.000000" stroke="none" 
	d="
M225.852493,175.764954 
	C226.239868,178.826736 230.392059,181.459427 226.162933,184.732178 
	C225.076874,185.605637 224.341446,185.508514 223.815674,184.196472 
	C223.871765,183.605240 223.900238,183.309647 223.844009,183.292542 
	C221.262817,182.507629 223.965286,178.446533 220.727615,178.175522 
	C217.162552,177.877121 218.846771,182.015930 216.774872,183.022430 
	C216.485046,183.163239 216.159073,183.229630 215.848358,183.325928 
	C214.300629,178.196426 217.143860,175.233826 224.339691,174.876678 
	C225.174591,174.900803 225.495758,175.104919 225.852493,175.764954 
z"/>
<path fill="#353535" opacity="1.000000" stroke="none" 
	d="
M90.223984,118.266159 
	C89.853134,118.126442 89.437180,118.133347 89.229980,118.115021 
	C88.870926,117.894516 88.719055,117.692337 88.702354,117.135788 
	C91.071785,113.848488 88.113190,112.794624 86.786674,111.170143 
	C85.892555,110.075180 84.076691,108.912651 85.744766,107.593216 
	C86.597580,106.918663 88.441895,105.768005 89.995575,108.195930 
	C91.351433,110.314705 92.399857,106.307465 94.532547,106.937004 
	C98.945938,106.257996 99.487595,106.759407 98.384338,110.725708 
	C97.833328,110.937508 97.669739,110.966240 97.509216,110.954170 
	C95.559631,110.807632 93.120598,108.661476 91.804474,111.192451 
	C90.524727,113.653458 93.238380,114.895828 94.861908,116.666481 
	C93.756523,118.230690 92.254730,118.562416 90.223984,118.266159 
z"/>
<path fill="#121212" opacity="1.000000" stroke="none" 
	d="
M208.742584,93.275505 
	C210.622437,93.039536 212.405975,92.636864 213.816376,94.635620 
	C214.970703,97.520798 217.416504,100.368507 212.319977,101.893776 
	C211.483780,101.877441 211.031937,101.779991 210.345734,101.435699 
	C209.845520,100.998650 209.694504,100.692177 209.512573,100.335968 
	C209.279800,100.359268 208.854462,100.564194 208.642929,100.666611 
	C208.431396,100.769020 208.056183,101.061577 208.056183,101.061577 
	C208.056183,101.061577 208.425934,101.380577 208.487457,101.649567 
	C208.518265,102.106903 208.487534,102.295258 208.309525,102.737411 
	C207.863983,103.272713 207.506943,103.418472 206.859528,103.268517 
	C206.407730,102.964584 206.235321,102.802521 206.027130,102.437286 
	C205.634659,101.694214 205.529678,101.046646 205.162476,100.164551 
	C204.955429,99.522324 204.954910,99.132133 204.951279,98.449326 
	C205.201324,97.877541 205.442535,97.588387 205.828979,97.054749 
	C206.095230,95.923119 206.420364,95.204079 207.750748,95.018372 
	C208.457855,94.552170 208.519516,94.016083 208.742584,93.275505 
z"/>
<path fill="#393939" opacity="1.000000" stroke="none" 
	d="
M163.003967,73.521530 
	C163.328583,72.484528 162.732727,70.938339 164.488434,71.758896 
	C165.761719,72.353981 166.931610,73.261459 168.840759,73.128265 
	C169.473877,73.742790 169.785141,74.283760 170.053650,75.159523 
	C169.552643,78.629326 168.485687,82.244431 174.104721,80.188560 
	C175.007675,79.858177 175.721710,80.262413 175.797684,81.330025 
	C175.873962,82.401672 175.098648,82.617668 174.265793,82.873367 
	C171.089371,83.848572 166.680908,81.320335 165.959106,77.950844 
	C165.722824,76.847824 166.039963,75.590736 164.299194,74.931732 
	C163.469162,74.653351 163.148819,74.320099 163.003967,73.521530 
z"/>
<path fill="#121212" opacity="1.000000" stroke="none" 
	d="
M227.346558,151.121643 
	C227.175568,149.730499 227.807785,149.237671 228.931808,148.957001 
	C234.717514,147.512207 235.149124,146.232788 231.578751,141.509338 
	C231.203506,141.012894 230.763016,140.565781 230.149506,139.862900 
	C234.394653,140.642731 235.848434,141.615845 235.849380,145.097382 
	C235.850189,148.029175 237.188065,148.719421 239.829865,149.039734 
	C239.957047,151.354553 238.329544,151.503403 236.589218,151.482391 
	C233.628616,151.446640 230.666672,151.570023 227.346558,151.121643 
z"/>
<path fill="#353535" opacity="1.000000" stroke="none" 
	d="
M82.781136,167.808350 
	C84.611679,167.816513 86.297997,170.173370 87.872719,167.259171 
	C88.675095,166.378983 88.464516,165.588821 88.593018,164.593658 
	C90.244804,164.515549 92.061798,162.191467 93.455132,164.740540 
	C94.970093,167.512131 92.313416,168.148361 90.984535,169.286667 
	C86.276222,173.319794 84.754906,173.185333 80.984543,168.368347 
	C81.455261,167.565659 81.982658,167.675613 82.781136,167.808350 
z"/>
<path fill="#252525" opacity="1.000000" stroke="none" 
	d="
M212.253021,192.777588 
	C212.129105,195.020477 213.034683,196.532883 213.833435,198.135727 
	C214.269363,199.010544 216.070541,199.610977 214.941635,200.858109 
	C213.777527,202.144150 212.683441,201.240250 211.683365,200.238007 
	C211.140244,199.693710 210.343307,199.402664 209.006332,198.973206 
	C208.151199,198.884384 207.950607,198.819778 207.458344,198.634216 
	C206.397690,198.165268 205.603912,197.863937 204.803558,197.037277 
	C206.234451,195.478775 204.789108,192.059357 208.420059,191.959839 
	C209.197540,191.604248 209.661880,191.425308 210.550415,191.429871 
	C211.401733,191.699997 211.797745,192.010544 212.253021,192.777588 
z"/>
<path fill="#303030" opacity="1.000000" stroke="none" 
	d="
M184.277466,84.676712 
	C182.034393,84.771423 179.145676,85.233398 178.316727,84.137444 
	C176.978653,82.368385 179.735275,80.963829 180.591980,79.315605 
	C182.136078,76.344925 180.823685,72.393303 183.811905,69.537376 
	C186.820068,73.669998 181.497971,77.214676 183.709534,81.066383 
	C184.944931,82.084496 185.002747,83.171776 184.277466,84.676712 
z"/>
<path fill="#414141" opacity="1.000000" stroke="none" 
	d="
M190.573685,77.360199 
	C195.916306,77.402298 196.295532,77.985786 195.944870,85.838394 
	C196.221710,86.873482 196.392563,87.232445 196.478424,87.943878 
	C196.131653,89.194633 195.477646,89.597458 194.237122,89.222076 
	C193.519562,88.629524 193.051544,88.244827 192.286377,87.753769 
	C191.526154,87.535072 191.142029,87.299850 190.751282,86.589790 
	C191.902939,83.387856 191.278625,81.339790 187.849487,80.171959 
	C187.564560,79.695709 187.509781,79.472855 187.621826,78.948891 
	C187.788620,78.647774 187.824020,78.307137 187.887817,78.148232 
	C188.582977,77.268936 189.379730,77.167740 190.573685,77.360199 
z"/>
<path fill="#2C2C2C" opacity="1.000000" stroke="none" 
	d="
M150.661880,216.166656 
	C149.673874,218.968231 155.341202,221.432693 151.527405,224.478958 
	C150.484711,223.989029 151.157654,222.695618 150.566666,221.903763 
	C147.823318,224.544891 154.080750,226.803223 149.869797,230.288223 
	C150.726532,223.460495 145.561111,222.721649 140.807419,220.969650 
	C144.612411,218.966064 150.105316,222.906097 150.661880,216.166656 
z"/>
<path fill="#2C2C2C" opacity="1.000000" stroke="none" 
	d="
M107.040985,89.294083 
	C107.775536,89.242401 108.567200,89.491997 109.648628,89.870621 
	C110.421265,90.331306 110.817863,90.733932 111.036484,91.591011 
	C111.041817,92.429199 111.021889,92.980133 110.937927,93.943024 
	C109.832962,93.312065 108.635925,93.657387 107.132431,93.974586 
	C105.528961,95.436562 103.079781,95.444519 102.171165,97.872086 
	C101.899101,98.363068 101.777382,98.553436 101.413559,98.983002 
	C100.953812,99.286537 100.736160,99.350883 100.246841,99.210068 
	C97.788971,96.779083 98.907822,92.926765 101.992142,91.939804 
	C103.783012,91.366753 106.200432,92.121078 107.040985,89.294083 
z"/>
<path fill="#222222" opacity="1.000000" stroke="none" 
	d="
M183.781097,214.520569 
	C184.735641,213.886749 184.699188,213.156464 184.026245,212.030884 
	C184.115509,210.652023 183.859238,209.369980 185.656662,208.383392 
	C184.561188,212.985291 188.056152,213.528473 190.751419,214.667175 
	C192.735870,215.505569 194.289017,214.806931 195.425446,212.307251 
	C195.720078,217.979538 194.002930,218.948181 186.424271,217.032150 
	C185.888611,216.944901 185.752625,216.843033 185.440582,216.557159 
	C185.159805,216.239914 185.055084,216.106674 184.781799,215.783539 
	C184.492844,215.474640 184.372452,215.355652 184.066620,215.063263 
	C183.881149,214.889877 183.831253,214.638489 183.781097,214.520569 
z"/>
<path fill="#202020" opacity="1.000000" stroke="none" 
	d="
M232.182007,130.845032 
	C230.112045,129.884811 228.529068,128.144196 225.847595,129.517715 
	C224.482178,130.217133 222.397263,130.708618 221.436737,129.074631 
	C220.385971,127.287102 222.320786,126.246857 223.765503,125.041084 
	C224.315979,124.862701 224.498306,124.750137 224.997894,124.689087 
	C226.373428,125.129639 227.697479,126.130081 228.445297,125.804985 
	C232.284012,124.136208 231.939194,126.803619 232.150574,129.426727 
	C232.261292,130.057007 232.342102,130.300751 232.182007,130.845032 
z"/>
<path fill="#222222" opacity="1.000000" stroke="none" 
	d="
M89.747238,185.747696 
	C93.369347,187.731400 95.567001,184.534653 98.394493,183.808197 
	C99.343658,183.564316 100.356789,182.795685 101.057404,183.875854 
	C102.010696,185.345612 100.480560,185.931473 99.647720,186.495880 
	C98.586983,187.214706 97.422661,187.688461 96.376328,188.560959 
	C92.051926,192.166901 91.832642,192.044479 89.157631,186.290741 
	C89.293045,185.783417 89.435944,185.637756 89.747238,185.747696 
z"/>
<path fill="#414141" opacity="1.000000" stroke="none" 
	d="
M209.766083,100.877960 
	C213.930618,101.225830 215.893250,100.113472 213.984039,95.354111 
	C218.465530,96.804962 215.935471,100.638023 216.677505,103.884491 
	C217.293335,104.439484 217.502655,104.813187 217.422546,105.617683 
	C217.038940,106.285614 216.686218,106.543938 215.945297,106.759186 
	C215.420303,106.809296 215.211472,106.800552 214.711151,106.708054 
	C213.917816,106.697983 214.139999,105.482422 213.113190,106.142189 
	C212.031021,106.223778 211.205139,106.197716 209.966827,106.199821 
	C209.102325,105.134224 208.204865,104.113640 209.082092,102.528091 
	C209.311264,101.868149 209.460999,101.499687 209.766083,100.877960 
z"/>
<path fill="#202020" opacity="1.000000" stroke="none" 
	d="
M77.957848,152.931091 
	C78.302444,149.375732 79.667519,147.503357 83.307472,147.734238 
	C84.868912,147.833267 86.509682,147.025177 88.079239,146.519974 
	C88.981644,146.229523 89.914795,146.210938 90.214561,147.072021 
	C90.676567,148.399170 89.529160,148.706512 88.530800,148.885178 
	C87.879562,149.001724 87.189423,149.109802 86.544662,149.020309 
	C81.739113,148.353271 80.343849,150.879730 80.779289,155.121750 
	C80.878769,156.090897 81.259514,157.097351 79.661201,157.696503 
	C79.112259,156.233337 78.564529,154.773407 77.957848,152.931091 
z"/>
<path fill="#303030" opacity="1.000000" stroke="none" 
	d="
M171.841858,224.386963 
	C170.664749,226.090652 169.031357,225.698914 167.664902,225.911346 
	C166.330551,226.118790 165.705414,224.601547 166.465988,224.031799 
	C169.292496,221.914474 168.437805,219.387268 168.023331,216.670639 
	C167.867722,215.650635 167.266693,213.485550 169.071518,213.421021 
	C171.008530,213.351746 170.975616,215.542801 170.897644,216.875046 
	C170.750671,219.386292 170.151932,221.875519 171.841858,224.386963 
z"/>
<path fill="#303030" opacity="1.000000" stroke="none" 
	d="
M208.970200,205.694214 
	C209.358795,210.138489 205.387390,210.401321 203.045486,211.029648 
	C201.049408,211.565170 198.432571,209.615311 197.861801,206.358246 
	C198.539215,205.425827 199.417664,206.114288 200.434402,205.584015 
	C202.991867,205.791504 205.166611,205.083862 207.729630,205.110535 
	C208.276505,205.280960 208.482910,205.385605 208.970200,205.694214 
z"/>
<path fill="#202020" opacity="1.000000" stroke="none" 
	d="
M101.020035,192.759842 
	C102.129005,194.707108 103.929924,195.930038 103.872772,198.603714 
	C101.750534,199.128281 99.835464,199.103256 97.508156,199.079651 
	C96.636475,198.619675 96.527817,198.003967 96.159927,197.180344 
	C95.992050,195.884079 96.026566,194.820740 96.087479,193.359344 
	C97.633278,192.552078 99.133888,191.923935 101.020035,192.759842 
z"/>
<path fill="#353535" opacity="1.000000" stroke="none" 
	d="
M161.789886,76.277557 
	C161.319092,78.032639 162.545654,80.537376 160.200333,80.849403 
	C157.719330,81.179482 157.288498,78.931076 156.770798,76.941063 
	C156.458038,75.738800 155.519196,74.699417 154.626648,73.359192 
	C154.126358,72.974335 153.861099,72.817154 153.792114,72.241180 
	C154.152847,71.043846 154.076248,69.810005 154.526688,69.571487 
	C155.919662,68.833885 156.279556,70.316017 157.094864,71.053658 
	C158.802765,72.598862 156.919708,76.465210 160.931000,76.258820 
	C161.336258,75.994926 161.531296,75.993462 161.789886,76.277557 
z"/>
<path fill="#202020" opacity="1.000000" stroke="none" 
	d="
M204.345337,196.771912 
	C205.638916,197.015579 206.605957,197.283859 207.809143,197.839325 
	C208.155731,198.332565 208.266174,198.538620 208.216400,199.055695 
	C207.885681,199.524246 207.715179,199.681778 207.249786,200.021317 
	C205.039307,201.442688 202.428970,200.209320 200.362091,202.125549 
	C198.560699,202.373795 197.651718,201.340347 196.425354,200.241150 
	C193.601898,196.934998 196.779663,197.267242 198.596741,196.588745 
	C199.514359,196.532455 200.050705,196.532288 200.978668,196.699890 
	C202.253098,196.797272 203.135941,196.796890 204.345337,196.771912 
z"/>
<path fill="#292929" opacity="1.000000" stroke="none" 
	d="
M226.240143,175.733917 
	C225.700760,175.805115 225.378754,175.587570 224.897583,175.117950 
	C224.144318,174.343079 223.585007,173.772751 222.949158,173.306915 
	C221.407471,172.177399 219.787872,170.639877 221.427795,168.966309 
	C223.116028,167.243423 224.370178,169.681366 225.186523,170.659042 
	C226.861801,172.665390 228.844513,173.157990 231.595520,173.015427 
	C231.714920,173.969223 232.637192,175.902710 230.164124,175.123886 
	C228.938950,174.738068 227.638535,174.717010 226.240143,175.733917 
z"/>
<path fill="#2C2C2C" opacity="1.000000" stroke="none" 
	d="
M106.496216,94.942810 
	C107.028290,96.898460 110.352646,97.348633 109.095840,100.307114 
	C109.167969,100.916855 109.253616,101.142487 109.200676,101.702568 
	C109.062096,102.037010 109.010056,102.020279 109.026718,102.041992 
	C108.529602,102.407196 107.951134,102.633797 107.136497,103.062477 
	C106.846260,103.166840 106.436928,103.041443 106.223785,103.021713 
	C105.332451,103.591179 104.521622,103.474907 103.387817,103.211792 
	C103.051086,102.991791 102.582901,103.025764 102.357796,103.092216 
	C101.248489,103.004936 100.841415,102.333824 100.327682,101.365143 
	C100.192490,100.904648 100.198952,100.703751 100.189957,100.201752 
	C100.297585,99.735977 100.420662,99.571312 100.774109,99.201653 
	C101.004471,98.996651 101.000305,98.999870 100.998589,99.000961 
	C101.346313,98.058884 102.781738,100.265198 102.941971,98.241592 
	C103.084435,96.442421 104.396141,95.335426 106.496216,94.942810 
z"/>
<path fill="#292929" opacity="1.000000" stroke="none" 
	d="
M112.310509,201.854706 
	C110.397003,202.498199 108.810852,202.911285 107.239105,203.373398 
	C105.717850,203.820633 104.118759,205.804611 102.790901,204.614471 
	C101.362091,203.333847 103.414345,201.476929 103.535408,199.472656 
	C103.665611,199.153305 103.935646,198.971909 104.044052,198.848328 
	C106.274307,199.381500 108.642570,199.048828 110.799026,200.164154 
	C112.809982,199.273636 113.568146,199.616394 112.310509,201.854706 
z"/>
<path fill="#292929" opacity="1.000000" stroke="none" 
	d="
M98.277664,111.037979 
	C99.571083,108.184578 98.380806,107.106728 95.248322,106.948227 
	C95.275742,104.686844 92.876999,104.066994 92.289085,102.424606 
	C91.904739,101.350883 91.507523,99.742363 92.802521,99.413300 
	C94.551842,98.968803 95.366516,99.834709 93.814407,101.468140 
	C95.634239,103.019051 97.292816,104.840515 99.317673,106.047462 
	C101.495201,107.345398 100.730301,109.423500 100.995575,111.073723 
	C101.134972,111.940887 99.449837,111.650681 98.277664,111.037979 
z"/>
<path fill="#202020" opacity="1.000000" stroke="none" 
	d="
M194.060760,89.355927 
	C195.066254,89.053322 195.929321,88.785835 196.042801,87.167252 
	C195.888672,86.660690 195.789398,86.517281 195.838654,86.158493 
	C195.987183,85.943115 195.987518,85.991722 195.962906,85.984619 
	C198.340759,86.580536 198.052490,82.397339 200.865952,83.569809 
	C201.589645,84.564659 201.792435,85.369873 201.235199,86.613136 
	C198.823761,88.571648 197.207077,90.484825 197.025208,93.697655 
	C196.061432,92.364319 195.097672,91.030983 194.060760,89.355927 
z"/>
<path fill="#252525" opacity="1.000000" stroke="none" 
	d="
M190.856064,85.827744 
	C191.300903,86.482117 191.537750,86.869316 191.881927,87.451965 
	C188.807129,89.201408 185.813919,89.981384 184.025970,85.359680 
	C183.994232,83.975716 183.989960,82.942642 183.999512,81.527557 
	C184.054306,80.198418 183.914169,79.142319 185.659256,79.015717 
	C186.163040,79.203354 186.308914,79.380615 186.581650,79.877426 
	C186.623398,83.011894 188.021225,84.737587 190.856064,85.827744 
z"/>
<path fill="#191919" opacity="1.000000" stroke="none" 
	d="
M146.240295,76.653053 
	C145.072739,77.465553 144.972687,78.360619 144.998672,79.653343 
	C141.981552,79.816185 141.772522,77.800125 141.976868,75.446487 
	C142.260452,72.180023 144.152771,70.532631 147.618637,70.010757 
	C148.443756,72.210014 144.506271,72.130379 145.789200,74.852654 
	C146.360718,75.424652 146.500214,75.861137 146.240295,76.653053 
z"/>
<path fill="#060606" opacity="1.000000" stroke="none" 
	d="
M235.234772,162.681335 
	C232.814911,166.943588 230.513062,161.581802 227.957596,162.880249 
	C227.163925,163.283493 225.764542,162.288361 224.660706,162.338165 
	C223.180267,162.404953 222.938309,161.673279 223.114838,160.567993 
	C223.338058,159.170380 224.259369,159.316788 225.337311,159.628586 
	C228.620056,160.578186 231.925903,161.447983 235.234772,162.681335 
z"/>
<path fill="#2C2C2C" opacity="1.000000" stroke="none" 
	d="
M120.988304,206.099533 
	C123.780075,204.275574 125.553520,204.904556 125.925186,208.857330 
	C125.834404,209.458344 125.401596,209.702927 125.230171,209.882935 
	C125.058746,210.062927 124.997101,210.007812 125.033081,210.027588 
	C124.194862,210.679138 124.627449,212.281158 122.915359,212.546326 
	C121.747429,212.430389 121.176674,211.874496 120.472778,211.043304 
	C120.176872,210.701523 120.060081,210.567032 119.743851,210.260742 
	C119.397881,209.993881 119.251350,209.898849 118.910645,209.627930 
	C118.771004,208.763947 118.825546,208.075836 119.160393,207.178162 
	C119.987396,206.828049 120.522774,206.657303 120.988304,206.099533 
z"/>
<path fill="#202020" opacity="1.000000" stroke="none" 
	d="
M83.034393,167.434906 
	C82.696281,168.723480 82.110855,168.527817 81.238937,168.064682 
	C81.070229,160.490936 82.232590,159.360046 88.940910,160.912125 
	C86.648849,162.914597 82.215294,162.741791 83.034393,167.434906 
z"/>
<path fill="#303030" opacity="1.000000" stroke="none" 
	d="
M219.123413,187.162735 
	C219.853180,187.450302 219.926483,187.893646 220.001419,188.683685 
	C218.637527,190.592514 214.555573,190.998260 217.673065,194.542999 
	C217.824402,194.715057 216.902161,196.400360 216.497055,196.393295 
	C214.827118,196.364227 215.017029,194.558105 214.089813,193.320541 
	C213.737686,192.838821 213.592911,192.612045 213.296860,192.009811 
	C213.001892,190.808380 213.117584,190.021896 213.802277,189.001190 
	C215.228119,187.239792 217.144440,188.200439 219.123413,187.162735 
z"/>
<path fill="#191919" opacity="1.000000" stroke="none" 
	d="
M84.781517,138.799286 
	C85.669518,139.947601 85.685036,141.596527 87.416534,141.684814 
	C88.063736,141.717804 89.063553,140.526672 89.244141,141.983597 
	C89.325966,142.643799 88.495689,144.051163 88.170326,144.024094 
	C86.171776,143.857834 83.961449,145.884552 82.280708,144.081879 
	C80.147598,141.794022 83.397636,141.041275 84.132767,139.178177 
	C84.224030,138.842010 84.617821,138.655548 84.781517,138.799286 
z"/>
<path fill="#202020" opacity="1.000000" stroke="none" 
	d="
M101.353073,191.039871 
	C100.981895,189.359650 100.613029,187.319504 103.493233,188.785629 
	C105.620758,189.868607 107.448082,191.248123 107.862053,193.739899 
	C108.035217,194.782166 108.360107,196.458145 106.895515,196.680969 
	C104.438469,197.054794 106.225960,195.185593 105.990410,194.382416 
	C105.350014,192.198792 103.979095,191.073715 101.353073,191.039871 
z"/>
<path fill="#252525" opacity="1.000000" stroke="none" 
	d="
M121.600166,211.756348 
	C123.161766,212.123474 123.838875,211.261368 124.787033,210.214081 
	C124.907890,211.912613 125.687546,214.050903 123.349701,215.638092 
	C121.383301,216.910080 119.758522,216.415726 117.964203,215.023468 
	C118.077217,213.651718 118.415474,212.659851 118.868027,211.372971 
	C119.941704,210.397232 120.592842,211.195633 121.600166,211.756348 
z"/>
<path fill="#2C2C2C" opacity="1.000000" stroke="none" 
	d="
M117.495499,214.728882 
	C119.291664,214.999130 120.844360,215.354691 122.781372,215.824280 
	C120.117279,220.677551 120.117279,220.677551 117.214500,219.249451 
	C116.880035,218.068695 116.588425,217.195145 116.637177,215.925247 
	C116.810013,215.329971 117.031029,215.072083 117.495499,214.728882 
z"/>
<path fill="#393939" opacity="1.000000" stroke="none" 
	d="
M106.869202,94.744629 
	C106.172791,96.441048 101.700180,96.602425 105.296127,99.516479 
	C105.363831,99.571335 105.023987,100.421608 104.702538,100.614372 
	C103.178520,101.528374 102.265450,100.657700 101.273056,99.191643 
	C100.991364,95.608055 102.547195,93.803467 106.450417,93.995010 
	C106.854401,94.149979 106.886612,94.319946 106.869202,94.744629 
z"/>
<path fill="#252525" opacity="1.000000" stroke="none" 
	d="
M216.845749,106.226341 
	C216.852615,105.549004 216.891083,105.150879 216.921783,104.454033 
	C218.643845,103.189018 220.408936,102.117653 222.092438,104.152458 
	C222.550476,104.706078 223.882416,104.965485 223.322067,105.912483 
	C222.311386,107.620605 220.473373,107.816086 218.287018,107.820526 
	C217.446854,107.463333 217.086929,107.045013 216.845749,106.226341 
z"/>
<path fill="#2A2A2A" opacity="1.000000" stroke="none" 
	d="
M134.356781,214.181320 
	C135.398224,213.058395 134.583893,210.641556 136.667252,211.181595 
	C138.890945,211.757996 136.912247,213.293411 137.035751,214.381454 
	C137.289825,216.619522 135.653793,217.884750 134.597244,219.467422 
	C132.302170,217.931641 134.307632,216.143356 134.356781,214.181320 
z"/>
<path fill="#2C2C2C" opacity="1.000000" stroke="none" 
	d="
M196.162659,211.898727 
	C195.820084,211.942841 195.522629,211.954300 195.376495,211.948318 
	C193.548630,209.714447 190.499039,207.839127 193.405853,204.275620 
	C194.730423,206.152924 195.962936,207.996109 197.299271,209.760681 
	C198.229507,210.989044 197.620773,211.480606 196.162659,211.898727 
z"/>
<path fill="#191919" opacity="1.000000" stroke="none" 
	d="
M231.950119,131.513168 
	C231.975769,130.923157 232.010391,130.700729 232.112747,130.145798 
	C234.571823,130.397598 234.233170,132.144669 233.586319,133.683304 
	C232.829559,135.483459 231.601822,137.068115 229.695557,137.821243 
	C229.076019,138.066010 228.443420,137.585175 228.263184,136.840240 
	C228.087601,136.114639 228.350800,135.458496 229.033173,135.252487 
	C230.753891,134.733017 232.057312,133.939453 231.950119,131.513168 
z"/>
<path fill="#2A2A2A" opacity="1.000000" stroke="none" 
	d="
M88.528839,116.912361 
	C88.872055,116.999901 88.906586,117.218391 88.981949,117.766785 
	C85.716553,122.257545 83.215042,117.872139 79.891090,117.699356 
	C82.860046,113.307182 85.684082,119.946312 88.528839,116.912361 
z"/>
<path fill="#2C2C2C" opacity="1.000000" stroke="none" 
	d="
M213.968872,188.382782 
	C214.041046,189.588333 213.981827,190.450958 213.889893,191.743484 
	C213.154434,192.537430 212.403473,192.486435 211.338135,192.221130 
	C210.524811,192.013916 210.025162,192.015198 209.153595,191.962463 
	C210.176056,187.036179 210.176056,187.036179 213.968872,188.382782 
z"/>
<path fill="#353535" opacity="1.000000" stroke="none" 
	d="
M85.255356,138.755341 
	C84.945213,138.943039 84.580841,138.904236 84.402435,138.873123 
	C84.076889,136.865692 83.970192,134.865341 81.089363,134.570908 
	C82.897049,132.463608 85.008247,132.563400 86.267563,133.670044 
	C87.965050,135.161743 86.454483,136.998825 85.255356,138.755341 
z"/>
<path fill="#FFFFFF" opacity="1.000000" stroke="none" 
	d="
M231.769852,112.516563 
	C227.408356,112.935699 222.860794,112.894737 218.318832,113.034798 
	C217.239700,113.068077 215.614273,112.122200 215.036865,114.547043 
	C213.108566,112.811935 213.941757,111.991669 216.433456,112.009636 
	C221.484253,112.046036 226.535049,112.084877 231.769852,112.516563 
z"/>
<path fill="#2A2A2A" opacity="1.000000" stroke="none" 
	d="
M89.959824,118.472656 
	C91.187462,117.298317 92.625359,116.877167 94.585373,117.004807 
	C95.180389,118.177643 96.789627,119.629311 95.095543,120.487732 
	C93.187248,121.454704 91.284821,120.769859 89.959824,118.472656 
z"/>
<path fill="#F8F8F8" opacity="1.000000" stroke="none" 
	d="
M226.604889,150.918030 
	C231.247528,150.569580 235.654984,152.096085 239.957275,149.440765 
	C241.605667,150.843918 241.569000,152.005508 238.929459,152.006378 
	C234.650269,152.007782 230.371063,151.969131 226.091904,151.941315 
	C225.947403,151.940384 225.722107,151.919617 225.672165,151.830734 
	C225.332825,151.226715 225.713608,151.063065 226.604889,150.918030 
z"/>
<path fill="#2C2C2C" opacity="1.000000" stroke="none" 
	d="
M140.015961,76.611816 
	C139.530090,76.996666 139.105942,76.998398 138.364014,76.997482 
	C137.674530,76.102448 137.138321,75.239647 136.971176,74.310463 
	C136.743454,73.044357 134.178513,71.757889 136.225586,70.701057 
	C137.842499,69.866318 138.988510,71.930664 139.667191,73.370140 
	C140.059616,74.202492 139.957306,75.268082 140.015961,76.611816 
z"/>
<path fill="#353535" opacity="1.000000" stroke="none" 
	d="
M216.568207,105.950882 
	C217.170853,106.372154 217.527542,106.797165 217.899887,107.508102 
	C217.055359,108.385483 216.195206,108.976929 215.249252,109.814651 
	C212.808609,110.206367 211.378403,109.620880 212.757950,106.571220 
	C213.108185,105.956818 213.359467,105.663788 213.804779,105.422279 
	C214.500519,105.490578 213.785400,106.823769 215.084503,106.090546 
	C215.663086,105.939751 215.992691,105.946671 216.568207,105.950882 
z"/>
<path fill="#FFFFFF" opacity="1.000000" stroke="none" 
	d="
M229.208923,153.999756 
	C227.325500,153.803955 225.801987,154.456772 224.108963,153.269409 
	C229.484344,153.269409 234.494034,153.269409 239.503708,153.269409 
	C239.507217,153.512863 239.510712,153.756302 239.514221,153.999756 
	C236.233093,153.999756 232.951965,153.999756 229.208923,153.999756 
z"/>
<path fill="#FFFFFF" opacity="1.000000" stroke="none" 
	d="
M215.073120,110.088722 
	C220.194290,110.138580 225.307159,110.138580 230.420029,110.138580 
	C230.424973,110.386116 230.429916,110.633652 230.434860,110.881187 
	C225.433380,110.881187 220.431900,110.881187 215.296936,110.471054 
	C215.163467,110.060928 215.064804,110.038864 215.073120,110.088722 
z"/>
<path fill="#252525" opacity="1.000000" stroke="none" 
	d="
M116.284714,215.644928 
	C117.618317,216.322937 118.289772,217.181427 117.345367,218.732269 
	C114.770134,219.189484 113.880157,217.260330 112.406105,216.171280 
	C113.584862,214.235291 114.855812,215.933624 116.284714,215.644928 
z"/>
<path fill="#393939" opacity="1.000000" stroke="none" 
	d="
M111.660645,203.218170 
	C113.496780,206.022049 112.196678,208.660385 111.119057,212.617798 
	C109.221031,208.554169 110.506546,206.007797 111.660645,203.218170 
z"/>
<path fill="#202020" opacity="1.000000" stroke="none" 
	d="
M220.127060,186.984009 
	C219.779892,187.006973 219.435440,187.032455 219.263824,187.041641 
	C219.124969,185.954590 218.749222,184.701645 220.532028,184.065430 
	C221.422440,184.053040 221.938675,184.321213 222.727234,184.198212 
	C222.948044,184.021729 223.406082,183.859955 223.644440,183.815430 
	C224.356903,184.161240 224.830994,184.551544 225.620621,184.979462 
	C224.781860,187.537292 222.317352,186.376251 220.127060,186.984009 
z"/>
<path fill="#202020" opacity="1.000000" stroke="none" 
	d="
M175.943481,73.872635 
	C179.230667,74.645782 178.419830,77.145729 177.405991,78.378632 
	C176.291885,79.733444 174.791504,78.520546 174.022552,76.642441 
	C174.008286,75.533882 174.795593,75.510765 175.322845,74.812508 
	C175.529953,74.349091 175.589340,74.153381 175.943481,73.872635 
z"/>
<path fill="#2A2A2A" opacity="1.000000" stroke="none" 
	d="
M206.724396,199.443359 
	C207.022873,199.074875 207.244324,199.033966 207.799927,198.943634 
	C208.294464,198.821808 208.454834,198.749420 208.814484,198.850037 
	C209.013779,199.023041 209.007202,198.998978 208.994659,198.995850 
	C208.982437,201.106964 212.152802,203.025146 209.311981,205.604767 
	C208.963974,205.861877 208.676895,205.825562 207.969894,205.679352 
	C206.334183,203.779053 206.011398,201.849609 206.724396,199.443359 
z"/>
<path fill="#202020" opacity="1.000000" stroke="none" 
	d="
M200.215302,205.764618 
	C199.443771,206.964050 198.892639,206.277237 198.095840,206.043396 
	C196.758209,204.936249 194.752106,204.535126 195.471741,202.142288 
	C198.067978,200.572739 198.936935,202.578629 200.253052,204.268372 
	C200.408203,204.904587 200.421814,205.169174 200.215302,205.764618 
z"/>
<path fill="#FFFFFF" opacity="1.000000" stroke="none" 
	d="
M153.065704,75.358536 
	C153.004364,76.918015 154.828323,77.904823 153.655136,79.598610 
	C152.710693,78.207237 151.309158,77.477089 149.393005,76.976959 
	C148.523148,76.406227 148.796768,75.870949 149.346741,75.128204 
	C149.918457,74.711197 150.288162,74.549370 150.908569,74.637802 
	C151.136810,74.835754 151.408707,74.605278 151.377304,74.429848 
	C151.425232,74.066719 151.504547,73.879021 151.884796,73.742065 
	C152.360214,73.896591 152.534714,74.000366 152.894562,74.344391 
	C153.149078,74.774048 153.218277,74.963455 153.065704,75.358536 
z"/>
<path fill="#353535" opacity="1.000000" stroke="none" 
	d="
M101.180336,192.641174 
	C99.740570,192.684647 98.326828,194.557419 96.408157,193.111023 
	C96.695656,190.561386 97.829254,189.356339 100.644615,191.038635 
	C100.996307,191.046021 101.004120,190.997040 100.979401,191.000809 
	C100.991081,191.445374 101.027481,191.886169 101.180336,192.641174 
z"/>
<path fill="#303030" opacity="1.000000" stroke="none" 
	d="
M200.342468,204.822083 
	C198.624298,204.211304 198.435822,202.031052 196.069382,201.966232 
	C195.808960,201.506546 195.916504,201.076019 196.112015,200.323074 
	C197.608551,199.897644 198.801865,200.224258 199.728912,201.814529 
	C202.282028,202.348938 201.422424,203.516037 200.342468,204.822083 
z"/>
<path fill="#202020" opacity="1.000000" stroke="none" 
	d="
M111.995193,202.307678 
	C112.125832,201.318176 113.139351,200.385101 111.261658,200.008026 
	C111.204445,198.686432 112.076447,197.347458 113.184990,198.396713 
	C114.461449,199.604874 114.718712,201.585754 112.339737,202.952332 
	C111.957771,203.003113 112.002258,202.995255 112.000336,203.018021 
	C111.998405,203.040787 112.013527,202.551666 111.995193,202.307678 
z"/>
<path fill="#191919" opacity="1.000000" stroke="none" 
	d="
M144.998474,80.001678 
	C146.770721,79.863724 148.544495,79.724091 150.345810,79.582291 
	C148.839859,82.047974 148.839859,82.047974 145.196350,80.281723 
	C145.001892,79.997116 145.000000,80.000000 144.998474,80.001678 
z"/>
<path fill="#222222" opacity="1.000000" stroke="none" 
	d="
M201.383270,87.001534 
	C201.004150,86.180267 201.015945,85.391266 201.058807,84.204376 
	C202.421738,84.462723 204.610809,84.415192 204.380051,86.539780 
	C204.164551,88.523819 202.681763,86.947189 201.383270,87.001534 
z"/>
<path fill="#202020" opacity="1.000000" stroke="none" 
	d="
M174.706512,74.142288 
	C173.477737,74.172050 172.839844,73.906052 172.884720,72.812012 
	C172.922165,71.898560 173.463058,71.293251 174.376984,71.219688 
	C175.705933,71.112732 175.877090,72.144379 176.150909,73.450470 
	C176.238235,73.787590 175.951248,74.057281 175.810898,74.195404 
	C175.438019,74.345039 175.205475,74.356567 174.706512,74.142288 
z"/>
<path fill="#121212" opacity="1.000000" stroke="none" 
	d="
M224.991669,139.364288 
	C228.151749,139.807144 227.110199,141.449829 225.985703,143.393326 
	C224.388016,142.277664 225.246216,140.876007 224.991669,139.364288 
z"/>
<path fill="#252525" opacity="1.000000" stroke="none" 
	d="
M209.617157,101.681534 
	C209.662766,103.136742 209.467026,104.387871 209.412842,105.933495 
	C207.891678,106.251396 206.999542,105.399628 206.698807,103.435394 
	C206.992325,102.770798 207.366440,102.455444 207.944077,101.832153 
	C208.551636,101.367554 208.961319,101.359077 209.617157,101.681534 
z"/>
<path fill="#121212" opacity="1.000000" stroke="none" 
	d="
M206.344421,92.231705 
	C206.266068,90.880386 205.343262,88.972115 206.903778,88.738281 
	C208.478409,88.502342 207.810547,90.333328 207.941589,91.694221 
	C207.542023,92.377045 207.113419,92.485771 206.344421,92.231705 
z"/>
<path fill="#121212" opacity="1.000000" stroke="none" 
	d="
M220.014038,189.005112 
	C221.551468,189.752701 222.384644,190.801987 221.390503,192.784241 
	C220.908585,193.123535 220.655197,193.245071 220.016663,193.195221 
	C219.749710,191.893921 219.867920,190.763977 219.994583,189.332214 
	C220.003052,189.030411 219.999237,188.998383 220.014038,189.005112 
z"/>
<path fill="#2C2C2C" opacity="1.000000" stroke="none" 
	d="
M150.986237,215.986618 
	C151.235275,214.890167 151.358047,213.458450 152.999588,214.562622 
	C153.802002,215.102386 154.312149,216.033981 153.499634,217.010437 
	C152.358231,218.382126 152.030823,217.104553 151.294815,216.208496 
	C151.035034,216.052979 151.004150,216.007477 150.986237,215.986618 
z"/>
<path fill="#222222" opacity="1.000000" stroke="none" 
	d="
M91.811935,178.896210 
	C92.204544,180.508163 91.883705,181.741043 90.444519,182.835754 
	C89.946617,183.197968 89.710686,183.359955 89.183380,183.206665 
	C89.181885,182.141693 89.471756,181.391983 89.850174,180.351868 
	C90.389786,179.513885 90.801476,178.920944 91.811935,178.896210 
z"/>
<path fill="#414141" opacity="1.000000" stroke="none" 
	d="
M162.189667,76.683533 
	C161.771744,76.360176 161.631912,76.212021 161.287598,76.057526 
	C161.572861,75.068413 162.004471,74.140442 162.751648,73.190369 
	C163.289871,73.585556 163.512527,74.002853 163.827728,74.638123 
	C163.936859,75.849991 163.861618,76.778145 162.189667,76.683533 
z"/>
<path fill="#292929" opacity="1.000000" stroke="none" 
	d="
M150.535339,74.680038 
	C151.337067,76.238403 150.045837,75.858429 149.203949,76.600311 
	C148.271210,77.014114 147.523514,77.036919 146.403870,77.003586 
	C146.024551,76.525368 146.017212,76.103294 146.020050,75.365219 
	C146.204834,75.039726 146.379456,75.030228 146.815918,75.004913 
	C148.000748,74.395676 149.024292,74.527084 150.535339,74.680038 
z"/>
<path fill="#F8F8F8" opacity="1.000000" stroke="none" 
	d="
M121.848114,211.548248 
	C121.109985,211.677032 120.352463,211.409149 119.288635,211.109604 
	C118.821419,210.634735 118.660515,210.191528 118.608032,209.600189 
	C118.716454,209.452072 118.671532,209.505798 118.699753,209.526520 
	C118.920029,209.546463 119.112076,209.545670 119.243378,209.263275 
	C120.525101,209.143509 121.375656,209.905197 121.848114,211.548248 
z"/>
<path fill="#292929" opacity="1.000000" stroke="none" 
	d="
M232.002533,173.003937 
	C232.596527,172.047592 233.044113,170.713837 234.557358,171.718719 
	C234.852798,171.914917 235.055267,172.666412 234.922470,173.019623 
	C234.373489,174.479843 233.458115,173.853485 232.292130,173.133209 
	C231.983368,172.975510 231.996445,172.995087 232.002533,173.003937 
z"/>
<path fill="#7D7D7D" opacity="1.000000" stroke="none" 
	d="
M153.179901,75.659103 
	C152.843903,75.564209 152.927521,75.567390 152.968552,75.575562 
	C152.908798,75.026909 152.629242,74.582603 151.777634,74.147720 
	C151.384613,74.044441 151.379074,74.152168 151.362488,74.203293 
	C151.995621,73.474022 152.645340,72.693626 153.641724,71.867813 
	C154.112915,72.022919 154.237457,72.223442 154.376831,72.777740 
	C154.099716,74.005684 153.807800,74.879845 153.179901,75.659103 
z"/>
<path fill="#222222" opacity="1.000000" stroke="none" 
	d="
M105.472214,84.587044 
	C104.643906,84.008797 104.291359,83.428909 104.991440,82.878281 
	C105.231323,82.689606 106.006126,82.784798 106.214119,83.027092 
	C106.806259,83.716866 107.111412,84.511513 105.472214,84.587044 
z"/>
<path fill="#191919" opacity="1.000000" stroke="none" 
	d="
M224.997528,138.991760 
	C223.993546,138.871201 223.017822,138.663666 223.176926,137.350662 
	C223.217636,137.014709 223.737900,136.453079 223.994598,136.476151 
	C225.118652,136.577179 224.840363,137.575165 224.977417,138.646973 
	C224.983490,138.994507 225.000519,139.000381 224.997528,138.991760 
z"/>
<path fill="#393939" opacity="1.000000" stroke="none" 
	d="
M190.639771,77.186249 
	C190.122452,77.562790 189.355911,77.778412 188.270493,77.991684 
	C188.293182,76.475319 189.075943,76.077538 190.639771,77.186249 
z"/>
<path fill="#393939" opacity="1.000000" stroke="none" 
	d="
M100.112701,101.431808 
	C100.751884,101.610672 101.317749,102.115807 102.008148,102.889801 
	C100.082390,104.713287 100.135315,103.124443 100.112701,101.431808 
z"/>
<path fill="#2C2C2C" opacity="1.000000" stroke="none" 
	d="
M139.271301,219.849640 
	C139.069611,218.602570 138.545105,217.505585 139.623871,216.620102 
	C140.160950,217.842133 140.415939,218.988968 139.271301,219.849640 
z"/>
<path fill="#D8D8D8" opacity="1.000000" stroke="none" 
	d="
M174.647705,74.206459 
	C174.593399,74.138748 174.746689,74.361023 175.285278,74.458405 
	C176.030869,75.350548 175.999100,76.131363 174.285095,76.195107 
	C173.401093,76.015526 172.841782,75.735176 172.282471,75.454834 
	C173.140091,75.135376 173.997711,74.815910 174.647705,74.206459 
z"/>
<path fill="#303030" opacity="1.000000" stroke="none" 
	d="
M183.847046,215.235687 
	C184.111969,214.918625 184.342804,214.947372 184.916321,215.041870 
	C185.355148,215.262878 185.451294,215.418121 185.762543,215.742950 
	C185.992325,216.101166 186.007019,216.289825 186.023163,216.762634 
	C184.117676,218.323853 183.696198,217.358887 183.847046,215.235687 
z"/>
<path fill="#7D7D7D" opacity="1.000000" stroke="none" 
	d="
M150.998245,74.755890 
	C150.043945,74.813461 149.053955,74.845390 147.570862,74.933205 
	C147.912613,73.139984 149.376190,74.685318 150.814728,74.596176 
	C151.136810,74.835754 150.962570,74.730240 150.998245,74.755890 
z"/>
<path fill="#121212" opacity="1.000000" stroke="none" 
	d="
M211.179077,192.272171 
	C211.736603,192.023544 212.448730,192.034470 213.509033,192.109406 
	C213.857178,192.173401 213.880661,192.618713 213.881561,192.842148 
	C213.547470,193.065735 213.212494,193.065887 212.634125,193.100006 
	C212.038391,192.933197 211.686035,192.732452 211.179077,192.272171 
z"/>
<path fill="#252525" opacity="1.000000" stroke="none" 
	d="
M115.358757,209.344635 
	C116.065735,209.095718 116.586868,209.105576 116.453072,209.807236 
	C116.404823,210.060272 116.063141,210.398758 115.809784,210.444214 
	C115.106064,210.570465 115.106476,210.045364 115.358757,209.344635 
z"/>
<path fill="#D8D8D8" opacity="1.000000" stroke="none" 
	d="
M170.368530,75.401138 
	C169.506119,75.071396 168.664185,74.863991 169.109955,73.525162 
	C169.875290,73.778084 171.492798,73.731071 170.368530,75.401138 
z"/>
<path fill="#393939" opacity="1.000000" stroke="none" 
	d="
M107.014427,103.379974 
	C107.357635,102.793106 107.869011,102.419373 108.711884,102.054672 
	C108.714447,102.927948 108.369980,103.773300 107.014427,103.379974 
z"/>
<path fill="#F8F8F8" opacity="1.000000" stroke="none" 
	d="
M222.656311,183.970062 
	C222.687698,185.361832 221.921967,185.033813 220.988251,184.278076 
	C221.307739,182.647324 221.835022,183.254974 222.656311,183.970062 
z"/>
<path fill="#353535" opacity="1.000000" stroke="none" 
	d="
M88.863983,183.274506 
	C89.107834,182.906525 89.323654,182.921661 89.861008,182.986389 
	C90.117393,183.777603 90.052231,184.519211 89.951340,185.632065 
	C89.915619,186.003296 89.531586,185.966888 89.340866,185.947983 
	C89.045410,185.171921 88.940674,184.414764 88.863983,183.274506 
z"/>
<path fill="#353535" opacity="1.000000" stroke="none" 
	d="
M91.992165,178.747955 
	C91.572212,179.371796 91.043785,179.636154 90.227036,179.980988 
	C89.850182,178.647141 89.848137,177.333374 91.992165,178.747955 
z"/>
<path fill="#393939" opacity="1.000000" stroke="none" 
	d="
M103.161064,103.304459 
	C103.790573,102.996826 104.530060,103.001862 105.640091,103.004440 
	C105.383385,104.480522 104.324257,104.035652 103.161064,103.304459 
z"/>
<path fill="#D8D8D8" opacity="1.000000" stroke="none" 
	d="
M88.440117,164.515106 
	C88.741104,165.195557 89.539986,166.049606 88.378761,166.956375 
	C88.093407,166.208252 88.163147,165.460052 88.440117,164.515106 
z"/>
<path fill="#414141" opacity="1.000000" stroke="none" 
	d="
M164.785553,68.947067 
	C165.843826,69.797363 165.373520,70.138832 164.614197,70.137329 
	C164.185104,70.136482 163.756699,69.785408 163.327972,69.592087 
	C163.697845,69.354393 164.067719,69.116699 164.785553,68.947067 
z"/>
<path fill="#191919" opacity="1.000000" stroke="none" 
	d="
M89.467499,139.506943 
	C89.392487,139.088348 89.474007,138.829834 89.555519,138.571304 
	C89.838608,138.860947 90.121696,139.150589 90.404785,139.440231 
	C90.144531,139.515823 89.884277,139.591415 89.467499,139.506943 
z"/>
<path fill="#353535" opacity="1.000000" stroke="none" 
	d="
M173.857315,214.336731 
	C174.253708,214.056076 174.739502,214.033203 175.586914,214.009552 
	C175.471954,214.855743 175.173172,216.310364 173.857315,214.336731 
z"/>
<path fill="#060606" opacity="1.000000" stroke="none" 
	d="
M224.398239,145.721054 
	C224.558960,145.848389 224.582230,146.068909 224.605499,146.289429 
	C224.490601,146.131027 224.375702,145.972626 224.398239,145.721054 
z"/>
<path fill="#2C2C2C" opacity="1.000000" stroke="none" 
	d="
M126.002464,208.997925 
	C126.534203,209.050537 127.237000,208.777557 127.339691,209.627304 
	C127.350372,209.715683 126.843597,209.866608 126.296524,209.958237 
	C125.899857,209.779495 125.783554,209.631027 125.827621,209.249481 
	C125.987991,209.016418 125.996849,209.004303 126.002464,208.997925 
z"/>
<path fill="#252525" opacity="1.000000" stroke="none" 
	d="
M204.958832,100.250458 
	C205.295853,100.465263 205.635757,101.018013 205.964462,101.922684 
	C205.622757,101.712532 205.292236,101.150467 204.958832,100.250458 
z"/>
<path fill="#D8D8D8" opacity="1.000000" stroke="none" 
	d="
M120.623688,205.869843 
	C122.086838,207.283447 120.546478,207.161728 119.678192,207.274261 
	C119.723145,206.618439 120.005585,206.268280 120.623688,205.869843 
z"/>
<path fill="#191919" opacity="1.000000" stroke="none" 
	d="
M79.990425,139.255905 
	C80.098343,139.417633 80.045479,139.580322 79.992615,139.743027 
	C79.938293,139.580978 79.883972,139.418930 79.990425,139.255905 
z"/>
<path fill="#252525" opacity="1.000000" stroke="none" 
	d="
M208.700073,93.053223 
	C208.793716,93.605171 208.653198,94.129562 208.288147,94.817474 
	C208.031998,94.539711 208.000381,94.098427 207.981812,93.331230 
	C207.994858,93.005310 208.465942,93.025658 208.700073,93.053223 
z"/>
<path fill="#121212" opacity="1.000000" stroke="none" 
	d="
M203.687683,93.626602 
	C203.828033,93.444931 204.072937,93.415733 204.317856,93.386536 
	C204.142639,93.517380 203.967438,93.648232 203.687683,93.626602 
z"/>
<path fill="#252525" opacity="1.000000" stroke="none" 
	d="
M206.204529,92.291107 
	C206.466690,92.041252 206.881241,92.039734 207.605377,92.052650 
	C207.914978,92.067078 207.969055,92.534935 207.981964,92.770126 
	C207.994858,93.005310 208.000031,92.999939 208.003067,92.996918 
	C207.456375,92.842415 206.906631,92.690926 206.204529,92.291107 
z"/>
<path fill="#353535" opacity="1.000000" stroke="none" 
	d="
M95.935013,197.290802 
	C96.327415,197.439865 96.697304,197.932327 97.081558,198.752930 
	C96.307388,198.921082 95.968651,198.393188 95.935013,197.290802 
z"/>
<path fill="#292929" opacity="1.000000" stroke="none" 
	d="
M201.252930,196.445312 
	C200.825150,196.836761 200.280075,196.875839 199.356506,196.758850 
	C199.437958,195.335602 200.197952,195.338257 201.252930,196.445312 
z"/>
<path fill="#7D7D7D" opacity="1.000000" stroke="none" 
	d="
M202.907410,194.732803 
	C203.457367,195.132919 204.411713,195.159775 203.739349,195.724701 
	C203.469513,195.951431 202.912308,196.083679 202.600464,195.962967 
	C201.880676,195.684357 201.878525,195.164291 202.907410,194.732803 
z"/>
<path fill="#353535" opacity="1.000000" stroke="none" 
	d="
M94.067780,178.041168 
	C94.308945,177.370300 94.567322,177.350708 94.799416,177.774704 
	C94.866623,177.897507 94.834656,178.221802 94.802597,178.228287 
	C94.558289,178.277649 94.302689,178.271149 94.067780,178.041168 
z"/>
<path fill="#393939" opacity="1.000000" stroke="none" 
	d="
M186.260376,80.046623 
	C186.017700,79.725403 186.039734,79.375351 186.028458,79.200714 
	C186.420135,78.977936 186.823074,78.929779 187.507324,78.764702 
	C187.831024,78.870216 187.873444,79.092659 187.958939,79.652039 
	C187.560577,80.345543 187.060898,80.471825 186.260376,80.046623 
z"/>
<path fill="#202020" opacity="1.000000" stroke="none" 
	d="
M171.450531,72.364220 
	C171.692108,72.351921 171.776321,72.447189 171.860535,72.542465 
	C171.671417,72.518913 171.482300,72.495354 171.450531,72.364220 
z"/>
<path fill="#393939" opacity="1.000000" stroke="none" 
	d="
M109.278969,101.940887 
	C109.051285,101.813126 109.040466,101.589249 109.055992,101.028290 
	C109.405869,101.009163 109.918671,101.259262 109.278969,101.940887 
z"/>
<path fill="#191919" opacity="1.000000" stroke="none" 
	d="
M148.004242,70.005554 
	C148.094498,69.971909 148.180511,69.932716 148.127686,69.942474 
	C147.988846,69.991440 148.000000,70.000000 148.004242,70.005554 
z"/>
<path fill="#252525" opacity="1.000000" stroke="none" 
	d="
M125.765816,209.121460 
	C125.987991,209.016418 126.003090,209.472839 126.009621,209.700409 
	C126.016151,209.927963 125.532486,209.961166 125.295616,210.012054 
	C125.114319,209.722610 125.275948,209.443802 125.765816,209.121460 
z"/>
<path fill="#303030" opacity="1.000000" stroke="none" 
	d="
M218.453613,196.388550 
	C218.527115,196.331223 218.552216,196.546341 218.552216,196.546341 
	C218.552216,196.546341 218.380096,196.445892 218.453613,196.388550 
z"/>
<path fill="#303030" opacity="1.000000" stroke="none" 
	d="
M219.802002,193.245712 
	C219.885986,193.004807 220.140442,192.985764 220.778442,192.984344 
	C220.901398,193.504440 220.629715,193.978561 219.802002,193.245712 
z"/>
<path fill="#121212" opacity="1.000000" stroke="none" 
	d="
M203.445648,96.530975 
	C203.409576,96.470551 203.481720,96.591408 203.445648,96.530975 
z"/>
<path fill="#252525" opacity="1.000000" stroke="none" 
	d="
M205.706421,96.946121 
	C205.819031,97.174118 205.653503,97.529320 205.218079,98.020607 
	C205.108231,97.795570 205.268265,97.434448 205.706421,96.946121 
z"/>
<path fill="#393939" opacity="1.000000" stroke="none" 
	d="
M100.747116,98.994202 
	C100.917458,99.275177 100.763687,99.509918 100.358826,99.800766 
	C100.174500,99.900650 100.012558,99.466621 99.993866,99.235764 
	C100.146698,99.000526 100.318222,98.996147 100.747116,98.994202 
z"/>
<path fill="#292929" opacity="1.000000" stroke="none" 
	d="
M90.273254,100.268204 
	C90.579132,100.271866 90.652847,100.502213 90.726562,100.732552 
	C90.498070,100.653320 90.269585,100.574097 90.273254,100.268204 
z"/>
<path fill="#222222" opacity="1.000000" stroke="none" 
	d="
M225.159348,124.482590 
	C225.121368,124.796066 224.927567,124.851547 224.433716,124.941147 
	C223.933060,124.156578 224.233475,123.918480 225.159348,124.482590 
z"/>
<path fill="#000000" opacity="1.000000" stroke="none" 
	d="
M111.485489,91.934052 
	C110.725510,91.441628 110.389275,91.004982 109.995720,90.283997 
	C111.012581,89.525177 110.847168,88.357506 111.327072,87.564651 
	C112.351189,85.872673 113.742760,84.013741 115.898178,84.819000 
	C117.993256,85.601707 118.994705,87.920967 118.723480,90.030090 
	C118.423065,92.366257 116.131516,92.034775 114.357826,92.064629 
	C113.542274,92.078354 112.725464,92.017090 111.485489,91.934052 
z"/>
<path fill="#000000" opacity="1.000000" stroke="none" 
	d="
M210.051910,101.727722 
	C209.470139,101.845108 209.081757,101.804604 208.420502,101.644165 
	C208.147598,101.524223 208.097626,101.368011 208.074524,101.289330 
	C207.919449,101.003487 207.787460,100.796333 207.876648,100.294495 
	C208.097824,99.999817 208.433533,100.016167 208.600143,100.038223 
	C209.035385,99.874268 209.304031,99.688248 209.746155,99.960632 
	C209.919647,100.419037 209.872025,100.567818 209.892212,100.594421 
	C210.023376,100.937302 210.134338,101.253571 210.051910,101.727722 
z"/>
<path fill="#252525" opacity="1.000000" stroke="none" 
	d="
M210.085846,96.695786 
	C209.523361,96.728539 209.126160,96.602486 208.728973,96.476425 
	C208.838623,96.370018 208.970978,96.157448 209.054092,96.175217 
	C209.460312,96.262085 209.853409,96.410393 210.085846,96.695786 
z"/>
<path fill="#252525" opacity="1.000000" stroke="none" 
	d="
M210.004395,100.096664 
	C209.723694,100.372673 209.527740,100.326317 209.049286,100.170120 
	C208.883621,99.478951 208.805664,98.736115 209.616531,98.658234 
	C209.737228,98.646652 209.929825,99.383621 210.004395,100.096664 
z"/>
<path fill="#252525" opacity="1.000000" stroke="none" 
	d="
M207.875854,100.079315 
	C208.096329,100.201012 208.094833,100.402199 208.072388,100.907028 
	C207.836273,100.993904 207.601379,100.791618 207.422867,100.548012 
	C207.387909,100.500320 207.571243,100.292671 207.875854,100.079315 
z"/>
<path fill="#000000" opacity="1.000000" stroke="none" 
	d="
M208.938324,198.791824 
	C209.013779,199.023041 208.569870,198.979950 208.351990,198.937073 
	C208.134094,198.894180 208.080948,198.509995 208.063110,198.318253 
	C208.406540,198.104004 208.679077,198.248703 208.938324,198.791824 
z"/>
<path fill="#000000" opacity="1.000000" stroke="none" 
	d="
M185.906540,80.074654 
	C186.455688,79.805977 186.893692,79.886543 187.666855,79.978043 
	C193.328201,80.519173 193.768875,81.204697 191.361664,85.886581 
	C186.782898,86.550377 184.904739,84.773323 185.906540,80.074654 
z"/>
<path fill="#000000" opacity="1.000000" stroke="none" 
	d="
M195.816254,86.032059 
	C195.987183,85.943115 196.018723,86.373878 196.003326,86.588989 
	C195.787766,86.669548 195.587585,86.535011 195.387421,86.400467 
	C195.473373,86.307312 195.559341,86.214149 195.816254,86.032059 
z"/>
<path fill="#000000" opacity="1.000000" stroke="none" 
	d="
M185.922516,215.728439 
	C185.731674,215.822800 185.526367,215.676178 185.310364,215.290131 
	C185.522842,215.168152 185.725647,215.313736 185.922516,215.728439 
z"/>
<path fill="#000000" opacity="1.000000" stroke="none" 
	d="
M214.989777,105.847946 
	C215.015335,106.369987 214.697205,106.806099 214.379074,107.242203 
	C214.222885,106.864922 214.066711,106.487633 213.954681,105.792068 
	C214.214569,105.569870 214.430328,105.665939 214.989777,105.847946 
z"/>
<path fill="#000000" opacity="1.000000" stroke="none" 
	d="
M199.988480,205.270142 
	C200.366394,204.137939 201.491913,203.429642 200.264145,202.152222 
	C200.781876,198.053680 204.419296,200.910751 206.508118,199.251282 
	C207.161209,201.084183 207.521011,203.052551 207.715393,205.295212 
	C205.301392,206.129623 203.194580,208.044952 200.349274,206.190582 
	C199.991959,205.912079 199.988739,205.728668 199.988480,205.270142 
z"/>
<path fill="#000000" opacity="1.000000" stroke="none" 
	d="
M159.476685,79.441597 
	C159.571533,79.378143 159.603134,79.632088 159.603134,79.632088 
	C159.603134,79.632088 159.381851,79.505051 159.476685,79.441597 
z"/>
<path fill="#252525" opacity="1.000000" stroke="none" 
	d="
M119.055130,209.111938 
	C120.277962,209.311234 119.918175,209.649292 118.958252,209.768387 
	C118.727974,209.547241 118.927628,209.242218 119.055130,209.111938 
z"/>
<path fill="#000000" opacity="1.000000" stroke="none" 
	d="
M151.309677,74.547836 
	C152.074173,73.774353 152.545563,73.987350 152.904236,75.133446 
	C152.300644,75.797279 151.711456,75.611694 151.309677,74.547836 
z"/>
</svg>